<svg xmlns="http://www.w3.org/2000/svg" xmlns:xlink="http://www.w3.org/1999/xlink" viewBox="0,0,256,256" width="20px" height="20px"><g fill="#5a5a5a" fill-rule="nonzero" stroke="none" stroke-width="1" stroke-linecap="butt" stroke-linejoin="miter" stroke-miterlimit="10" stroke-dasharray="" stroke-dashoffset="0" font-family="none" font-weight="none" font-size="none" text-anchor="none" style="mix-blend-mode: normal"><g transform="scale(10.66667,10.66667)"><path d="M16,4h-8c-2.209,0 -4,1.791 -4,4v8c0,2.209 1.791,4 4,4h8c2.209,0 4,-1.791 4,-4v-8c0,-2.209 -1.791,-4 -4,-4zM12,16c-2.209,0 -4,-1.791 -4,-4c0,-2.209 1.791,-4 4,-4c2.209,0 4,1.791 4,4c0,2.209 -1.791,4 -4,4z" opacity="0.3"></path><path d="M16,3h-8c-2.757,0 -5,2.243 -5,5v8c0,2.757 2.243,5 5,5h8c2.757,0 5,-2.243 5,-5v-8c0,-2.757 -2.243,-5 -5,-5zM19,16c0,1.654 -1.346,3 -3,3h-8c-1.654,0 -3,-1.346 -3,-3v-8c0,-1.654 1.346,-3 3,-3h8c1.654,0 3,1.346 3,3z"></path><path d="M12,7c-2.757,0 -5,2.243 -5,5c0,2.757 2.243,5 5,5c2.757,0 5,-2.243 5,-5c0,-2.757 -2.243,-5 -5,-5zM12,15c-1.654,0 -3,-1.346 -3,-3c0,-1.654 1.346,-3 3,-3c1.654,0 3,1.346 3,3c0,1.654 -1.346,3 -3,3zM17,6c-0.55228,0 -1,0.44772 -1,1c0,0.55228 0.44772,1 1,1c0.55228,0 1,-0.44772 1,-1c0,-0.55228 -0.44772,-1 -1,-1z"></path></g></g></svg>