<svg xmlns="http://www.w3.org/2000/svg" xmlns:xlink="http://www.w3.org/1999/xlink" width="50" zoomAndPan="magnify" viewBox="0 0 375 374.999991" height="50" preserveAspectRatio="xMidYMid meet" version="1.0"><defs><clipPath id="7f3c38fec3"><path d="M 94 59.753906 L 351.210938 59.753906 L 351.210938 315.503906 L 94 315.503906 Z M 94 59.753906 " clip-rule="nonzero"/></clipPath><clipPath id="b1efcfae0a"><path d="M 94 174 L 200 174 L 200 315.503906 L 94 315.503906 Z M 94 174 " clip-rule="nonzero"/></clipPath><clipPath id="91aee861ce"><path d="M 126 59.753906 L 351.210938 59.753906 L 351.210938 265 L 126 265 Z M 126 59.753906 " clip-rule="nonzero"/></clipPath><clipPath id="20fcde4e63"><path d="M 23.460938 59.753906 L 351.210938 59.753906 L 351.210938 223 L 23.460938 223 Z M 23.460938 59.753906 " clip-rule="nonzero"/></clipPath><clipPath id="416cb7b779"><path d="M 126 231 L 192 231 L 192 315.503906 L 126 315.503906 Z M 126 231 " clip-rule="nonzero"/></clipPath><clipPath id="80bba2ad23"><path d="M 23.460938 174 L 170 174 L 170 223 L 23.460938 223 Z M 23.460938 174 " clip-rule="nonzero"/></clipPath></defs><g clip-path="url(#7f3c38fec3)"><path fill="#737373" d="M 94.386719 222.039062 L 137.042969 315.230469 L 351.492188 59.757812 Z M 94.386719 222.039062 " fill-opacity="1" fill-rule="nonzero"/></g><g clip-path="url(#b1efcfae0a)"><path fill="#e64732" d="M 169.601562 174.570312 L 94.386719 222.039062 L 137.042969 315.230469 L 199.773438 240.492188 Z M 169.601562 174.570312 " fill-opacity="1" fill-rule="nonzero"/></g><g clip-path="url(#91aee861ce)"><path fill="#a6a6a6" d="M 126.167969 231.089844 L 242.484375 264.160156 L 351.492188 59.757812 Z M 126.167969 231.089844 " fill-opacity="1" fill-rule="nonzero"/></g><g clip-path="url(#20fcde4e63)"><path fill="#a6a6a6" d="M 23.507812 201.867188 L 94.386719 222.039062 L 351.492188 59.757812 Z M 23.507812 201.867188 " fill-opacity="1" fill-rule="nonzero"/></g><g clip-path="url(#416cb7b779)"><path fill="#ff914d" d="M 137.042969 315.230469 L 126.167969 231.089844 L 191.996094 249.773438 Z M 137.042969 315.230469 " fill-opacity="1" fill-rule="nonzero"/></g><g clip-path="url(#80bba2ad23)"><path fill="#ffbd59" d="M 23.507812 201.867188 L 169.601562 174.570312 L 94.386719 222.039062 Z M 23.507812 201.867188 " fill-opacity="1" fill-rule="nonzero"/></g><path fill="#ffbd59" d="M 191.996094 181.042969 L 126.167969 231.089844 L 242.484375 264.160156 Z M 191.996094 181.042969 " fill-opacity="1" fill-rule="nonzero"/></svg>