<svg xmlns="http://www.w3.org/2000/svg" xmlns:xlink="http://www.w3.org/1999/xlink" width="50" zoomAndPan="magnify" viewBox="0 0 375 374.999991" height="50" preserveAspectRatio="xMidYMid meet" version="1.0"><defs><clipPath id="bbed683ade"><path d="M 40.875 74.230469 L 334.125 74.230469 L 334.125 300.730469 L 40.875 300.730469 Z M 40.875 74.230469 " clip-rule="nonzero"/></clipPath></defs><path fill="#ff914d" d="M 187.507812 125.433594 C 146.773438 125.433594 113.636719 158.570312 113.636719 199.300781 C 113.636719 240.035156 146.773438 273.171875 187.507812 273.171875 C 228.238281 273.171875 261.375 240.035156 261.375 199.300781 C 261.375 158.570312 228.238281 125.433594 187.507812 125.433594 Z M 187.507812 260.136719 C 153.960938 260.136719 126.671875 232.847656 126.671875 199.300781 C 126.671875 165.757812 153.960938 138.46875 187.507812 138.46875 C 221.050781 138.46875 248.34375 165.757812 248.34375 199.300781 C 248.34375 232.847656 221.050781 260.136719 187.507812 260.136719 Z M 187.507812 260.136719 " fill-opacity="1" fill-rule="nonzero"/><path fill="#737373" d="M 187.507812 152.753906 C 161.839844 152.753906 140.957031 173.636719 140.957031 199.300781 C 140.957031 224.96875 161.839844 245.851562 187.507812 245.851562 C 213.171875 245.851562 234.054688 224.96875 234.054688 199.300781 C 234.054688 173.636719 213.171875 152.753906 187.507812 152.753906 Z M 187.507812 232.816406 C 169.027344 232.816406 153.992188 217.78125 153.992188 199.300781 C 153.992188 180.820312 169.027344 165.785156 187.507812 165.785156 C 205.988281 165.785156 221.023438 180.820312 221.023438 199.300781 C 221.023438 217.78125 205.988281 232.816406 187.507812 232.816406 Z M 187.507812 232.816406 " fill-opacity="1" fill-rule="nonzero"/><g clip-path="url(#bbed683ade)"><path fill="#ff914d" d="M 303.671875 105.472656 L 259.449219 105.472656 C 256.660156 105.472656 254.132812 103.933594 252.859375 101.449219 L 246.332031 88.730469 C 241.761719 79.832031 232.710938 74.304688 222.714844 74.304688 L 152.296875 74.304688 C 142.296875 74.304688 133.25 79.832031 128.679688 88.730469 L 122.152344 101.449219 C 120.878906 103.933594 118.351562 105.472656 115.5625 105.472656 L 71.324219 105.472656 C 54.535156 105.472656 40.875 119.148438 40.875 135.957031 L 40.875 270.242188 C 40.875 287.058594 54.535156 300.734375 71.324219 300.734375 L 303.671875 300.734375 C 320.464844 300.734375 334.125 287.058594 334.125 270.242188 L 334.125 135.957031 C 334.125 119.148438 320.464844 105.472656 303.671875 105.472656 Z M 53.90625 270.242188 L 53.90625 135.957031 C 53.90625 126.335938 61.722656 118.503906 71.324219 118.503906 L 115.566406 118.503906 C 123.261719 118.503906 130.230469 114.25 133.746094 107.398438 L 140.277344 94.683594 C 142.601562 90.152344 147.207031 87.335938 152.296875 87.335938 L 222.714844 87.335938 C 227.804688 87.335938 232.410156 90.152344 234.734375 94.683594 L 241.265625 107.398438 C 244.78125 114.25 251.75 118.503906 259.449219 118.503906 L 277.992188 118.503906 L 277.992188 287.699219 L 71.324219 287.699219 C 61.722656 287.699219 53.90625 279.867188 53.90625 270.242188 Z M 321.089844 270.242188 C 321.089844 279.867188 313.277344 287.699219 303.671875 287.699219 L 291.027344 287.699219 L 291.027344 118.503906 L 303.671875 118.503906 C 313.277344 118.503906 321.089844 126.335938 321.089844 135.957031 Z M 321.089844 270.242188 " fill-opacity="1" fill-rule="nonzero"/></g><path fill="#ff914d" d="M 98.964844 146.699219 C 98.964844 147.53125 98.882812 148.351562 98.722656 149.167969 C 98.558594 149.984375 98.320312 150.773438 98 151.542969 C 97.683594 152.308594 97.292969 153.039062 96.832031 153.730469 C 96.371094 154.421875 95.847656 155.058594 95.257812 155.648438 C 94.671875 156.234375 94.03125 156.761719 93.339844 157.222656 C 92.648438 157.683594 91.917969 158.074219 91.152344 158.390625 C 90.382812 158.710938 89.59375 158.949219 88.777344 159.113281 C 87.960938 159.273438 87.140625 159.355469 86.308594 159.355469 C 85.476562 159.355469 84.65625 159.273438 83.839844 159.113281 C 83.023438 158.949219 82.234375 158.710938 81.464844 158.390625 C 80.699219 158.074219 79.96875 157.683594 79.277344 157.222656 C 78.585938 156.761719 77.945312 156.234375 77.359375 155.648438 C 76.769531 155.058594 76.246094 154.421875 75.785156 153.730469 C 75.324219 153.039062 74.933594 152.308594 74.617188 151.542969 C 74.296875 150.773438 74.058594 149.984375 73.894531 149.167969 C 73.734375 148.351562 73.652344 147.53125 73.652344 146.699219 C 73.652344 145.867188 73.734375 145.042969 73.894531 144.230469 C 74.058594 143.414062 74.296875 142.621094 74.617188 141.855469 C 74.933594 141.085938 75.324219 140.359375 75.785156 139.667969 C 76.246094 138.976562 76.769531 138.335938 77.359375 137.75 C 77.945312 137.160156 78.585938 136.636719 79.277344 136.175781 C 79.96875 135.714844 80.699219 135.324219 81.464844 135.003906 C 82.234375 134.6875 83.023438 134.445312 83.839844 134.285156 C 84.65625 134.121094 85.476562 134.042969 86.308594 134.042969 C 87.140625 134.042969 87.960938 134.121094 88.777344 134.285156 C 89.59375 134.445312 90.382812 134.6875 91.152344 135.003906 C 91.917969 135.324219 92.648438 135.714844 93.339844 136.175781 C 94.03125 136.636719 94.671875 137.160156 95.257812 137.75 C 95.847656 138.335938 96.371094 138.976562 96.832031 139.667969 C 97.292969 140.359375 97.683594 141.085938 98 141.855469 C 98.320312 142.621094 98.558594 143.414062 98.722656 144.230469 C 98.882812 145.042969 98.964844 145.867188 98.964844 146.699219 Z M 98.964844 146.699219 " fill-opacity="1" fill-rule="nonzero"/><path fill="#ff914d" d="M 163.320312 111.414062 L 211.679688 111.414062 C 215.277344 111.414062 218.195312 108.496094 218.195312 104.894531 C 218.195312 101.296875 215.277344 98.378906 211.679688 98.378906 L 163.320312 98.378906 C 159.722656 98.378906 156.804688 101.296875 156.804688 104.894531 C 156.804688 108.496094 159.722656 111.414062 163.320312 111.414062 Z M 163.320312 111.414062 " fill-opacity="1" fill-rule="nonzero"/></svg>