<svg xmlns="http://www.w3.org/2000/svg" xmlns:xlink="http://www.w3.org/1999/xlink" width="50" zoomAndPan="magnify" viewBox="0 0 375 374.999991" height="50" preserveAspectRatio="xMidYMid meet" version="1.0"><defs><clipPath id="ad8325cfea"><path d="M 139 53.269531 L 236 53.269531 L 236 123 L 139 123 Z M 139 53.269531 " clip-rule="nonzero"/></clipPath><clipPath id="48658fdf76"><path d="M 18.75 315 L 356.25 315 L 356.25 352.519531 L 18.75 352.519531 Z M 18.75 315 " clip-rule="nonzero"/></clipPath></defs><path fill="#737373" d="M 187.5 208.269531 C 186.097656 208.269531 184.773438 207.636719 183.894531 206.546875 L 165.589844 183.855469 C 164.925781 183.03125 164.5625 182.007812 164.5625 180.949219 L 164.5625 164.699219 C 164.5625 162.140625 166.636719 160.070312 169.195312 160.070312 C 171.753906 160.070312 173.828125 162.140625 173.828125 164.699219 L 173.828125 179.3125 L 187.5 196.261719 L 201.171875 179.3125 L 201.171875 164.699219 C 201.171875 162.140625 203.246094 160.070312 205.804688 160.070312 C 208.363281 160.070312 210.4375 162.140625 210.4375 164.699219 L 210.4375 180.949219 C 210.4375 182.007812 210.074219 183.03125 209.410156 183.855469 L 191.105469 206.546875 C 190.226562 207.636719 188.902344 208.269531 187.5 208.269531 " fill-opacity="1" fill-rule="nonzero"/><g clip-path="url(#ad8325cfea)"><path fill="#737373" d="M 230.613281 122.644531 C 228.054688 122.644531 225.980469 120.570312 225.980469 118.011719 L 225.980469 101.179688 C 225.980469 80.035156 208.78125 62.773438 187.640625 62.699219 C 187.59375 62.699219 187.550781 62.699219 187.507812 62.699219 C 177.390625 62.699219 167.816406 66.691406 160.53125 73.953125 C 153.105469 81.347656 149.015625 91.136719 149.015625 101.515625 L 149.015625 118.011719 C 149.015625 120.570312 146.945312 122.644531 144.382812 122.644531 C 141.824219 122.644531 139.753906 120.570312 139.753906 118.011719 L 139.753906 101.515625 C 139.753906 95.03125 141.039062 88.714844 143.582031 82.75 C 146.039062 76.996094 149.539062 71.824219 153.992188 67.386719 C 163.023438 58.386719 174.921875 53.433594 187.503906 53.433594 C 187.5625 53.433594 187.617188 53.433594 187.675781 53.433594 C 200.390625 53.480469 212.335938 58.464844 221.320312 67.476562 C 230.300781 76.488281 235.246094 88.457031 235.246094 101.179688 L 235.246094 118.011719 C 235.246094 120.570312 233.171875 122.644531 230.613281 122.644531 " fill-opacity="1" fill-rule="nonzero"/></g><path fill="#737373" d="M 160.214844 114.179688 L 160.214844 138.472656 C 160.214844 153.515625 172.453125 165.757812 187.5 165.757812 C 202.546875 165.757812 214.785156 153.515625 214.785156 138.472656 L 214.785156 111.347656 L 205.992188 101.53125 C 192.046875 112.0625 169.914062 113.898438 160.214844 114.179688 Z M 187.5 175.023438 C 167.34375 175.023438 150.949219 158.625 150.949219 138.472656 L 150.949219 109.574219 C 150.949219 108.324219 151.457031 107.125 152.355469 106.253906 C 153.253906 105.378906 154.460938 104.910156 155.71875 104.945312 C 156.050781 104.953125 189.167969 105.746094 203.132812 91.777344 C 204.035156 90.878906 205.269531 90.386719 206.535156 90.421875 C 207.808594 90.460938 209.007812 91.011719 209.859375 91.960938 L 222.871094 106.484375 C 223.628906 107.335938 224.050781 108.433594 224.050781 109.574219 L 224.050781 138.472656 C 224.050781 158.625 207.65625 175.023438 187.5 175.023438 " fill-opacity="1" fill-rule="nonzero"/><path fill="#737373" d="M 150.949219 120.863281 C 147.203125 120.917969 144.179688 123.976562 144.179688 127.730469 C 144.179688 131.484375 147.203125 134.542969 150.949219 134.59375 Z M 155.578125 143.859375 L 151.039062 143.859375 C 142.148438 143.859375 134.914062 136.621094 134.914062 127.730469 C 134.914062 118.835938 142.148438 111.597656 151.039062 111.597656 L 155.578125 111.597656 C 158.140625 111.597656 160.214844 113.671875 160.214844 116.234375 L 160.214844 139.226562 C 160.214844 141.785156 158.140625 143.859375 155.578125 143.859375 " fill-opacity="1" fill-rule="nonzero"/><path fill="#737373" d="M 224.050781 120.863281 L 224.050781 134.59375 C 227.796875 134.542969 230.820312 131.484375 230.820312 127.730469 C 230.820312 123.976562 227.796875 120.917969 224.050781 120.863281 Z M 223.960938 143.859375 L 219.421875 143.859375 C 216.863281 143.859375 214.785156 141.785156 214.785156 139.226562 L 214.785156 116.234375 C 214.785156 113.671875 216.863281 111.597656 219.421875 111.597656 L 223.960938 111.597656 C 232.851562 111.597656 240.085938 118.835938 240.085938 127.730469 C 240.085938 136.621094 232.851562 143.859375 223.960938 143.859375 " fill-opacity="1" fill-rule="nonzero"/><path fill="#737373" d="M 112.316406 209.59375 C 111.296875 209.59375 110.269531 209.261719 109.414062 208.570312 C 107.421875 206.964844 107.105469 204.050781 108.710938 202.058594 C 113.839844 195.683594 120.6875 191.035156 128.511719 188.613281 L 167.988281 176.417969 C 170.433594 175.664062 173.023438 177.039062 173.777344 179.484375 C 174.523438 181.929688 173.148438 184.519531 170.703125 185.273438 L 170.550781 185.320312 L 131.253906 197.464844 C 125.199219 199.339844 119.898438 202.933594 115.929688 207.867188 C 115.011719 209.003906 113.667969 209.59375 112.316406 209.59375 " fill-opacity="1" fill-rule="nonzero"/><path fill="#737373" d="M 262.683594 209.59375 C 261.332031 209.59375 259.988281 209.003906 259.070312 207.867188 C 255.101562 202.933594 249.800781 199.339844 243.746094 197.464844 L 204.296875 185.273438 C 201.851562 184.519531 200.476562 181.929688 201.222656 179.484375 C 201.976562 177.039062 204.566406 175.664062 207.011719 176.417969 L 207.164062 176.460938 L 246.484375 188.613281 C 254.3125 191.035156 261.160156 195.683594 266.289062 202.058594 C 267.894531 204.050781 267.578125 206.964844 265.585938 208.570312 C 264.730469 209.261719 263.699219 209.59375 262.683594 209.59375 " fill-opacity="1" fill-rule="nonzero"/><path fill="#ff914d" d="M 99.816406 315.675781 L 275.183594 315.675781 L 282.929688 212.027344 C 282.996094 211.171875 282.582031 210.589844 282.332031 210.316406 C 282.082031 210.046875 281.53125 209.59375 280.671875 209.59375 L 94.328125 209.59375 C 93.46875 209.59375 92.921875 210.046875 92.667969 210.316406 C 92.417969 210.589844 92.003906 211.167969 92.070312 212.027344 Z M 279.480469 324.941406 L 95.519531 324.941406 C 93.09375 324.941406 91.078125 323.070312 90.898438 320.652344 L 82.832031 212.71875 C 82.589844 209.53125 83.703125 206.359375 85.878906 204.015625 C 88.054688 201.671875 91.132812 200.332031 94.328125 200.332031 L 280.671875 200.332031 C 283.867188 200.332031 286.945312 201.671875 289.121094 204.015625 C 291.296875 206.359375 292.410156 209.53125 292.167969 212.71875 L 284.101562 320.652344 C 283.921875 323.070312 281.90625 324.941406 279.480469 324.941406 " fill-opacity="1" fill-rule="nonzero"/><path fill="#ff914d" d="M 164.707031 285.378906 C 163.714844 285.378906 162.722656 285.0625 161.878906 284.414062 L 138.402344 266.300781 C 137.265625 265.425781 136.597656 264.070312 136.597656 262.632812 C 136.597656 261.195312 137.265625 259.84375 138.402344 258.964844 L 161.878906 240.859375 C 163.90625 239.296875 166.8125 239.667969 168.378906 241.695312 C 169.9375 243.722656 169.5625 246.628906 167.535156 248.191406 L 148.8125 262.632812 L 167.535156 277.078125 C 169.5625 278.640625 169.9375 281.550781 168.378906 283.574219 C 167.464844 284.757812 166.089844 285.378906 164.707031 285.378906 " fill-opacity="1" fill-rule="nonzero"/><path fill="#ff914d" d="M 210.292969 285.378906 C 208.90625 285.378906 207.535156 284.757812 206.621094 283.574219 C 205.058594 281.550781 205.4375 278.640625 207.464844 277.078125 L 226.1875 262.632812 L 207.464844 248.191406 C 205.4375 246.628906 205.058594 243.722656 206.621094 241.695312 C 208.1875 239.667969 211.09375 239.296875 213.121094 240.859375 L 236.597656 258.964844 C 237.734375 259.84375 238.402344 261.195312 238.402344 262.632812 C 238.402344 264.070312 237.734375 265.425781 236.597656 266.300781 L 213.121094 284.414062 C 212.277344 285.0625 211.28125 285.378906 210.292969 285.378906 " fill-opacity="1" fill-rule="nonzero"/><path fill="#ff914d" d="M 178.953125 299.179688 C 178.554688 299.179688 178.152344 299.125 177.75 299.019531 C 175.277344 298.359375 173.8125 295.816406 174.472656 293.34375 L 191.578125 229.523438 C 192.234375 227.054688 194.777344 225.589844 197.25 226.25 C 199.722656 226.914062 201.1875 229.449219 200.523438 231.921875 L 183.421875 295.746094 C 182.871094 297.8125 180.996094 299.179688 178.953125 299.179688 " fill-opacity="1" fill-rule="nonzero"/><g clip-path="url(#48658fdf76)"><path fill="#737373" d="M 28.019531 343.351562 L 346.980469 343.351562 C 346.683594 333.191406 338.332031 325.019531 328.101562 325.019531 L 46.898438 325.019531 C 36.667969 325.019531 28.316406 333.191406 28.019531 343.351562 Z M 351.621094 352.613281 L 23.378906 352.613281 C 20.824219 352.613281 18.75 350.539062 18.75 347.980469 L 18.75 343.902344 C 18.75 328.378906 31.375 315.757812 46.898438 315.757812 L 328.101562 315.757812 C 343.625 315.757812 356.25 328.378906 356.25 343.902344 L 356.25 347.980469 C 356.25 350.539062 354.175781 352.613281 351.621094 352.613281 " fill-opacity="1" fill-rule="nonzero"/></g></svg>