<svg xmlns="http://www.w3.org/2000/svg" xmlns:xlink="http://www.w3.org/1999/xlink" width="50" zoomAndPan="magnify" viewBox="0 0 375 374.999991" height="50" preserveAspectRatio="xMidYMid meet" version="1.0"><defs><clipPath id="c80a40aec2"><path d="M 55 54.015625 L 307 54.015625 L 307 308 L 55 308 Z M 55 54.015625 " clip-rule="nonzero"/></clipPath></defs><g clip-path="url(#c80a40aec2)"><path fill="#ff914d" d="M 301.121094 274.859375 C 300.640625 274.382812 300.164062 273.945312 299.597656 273.511719 L 250.820312 232.746094 C 262.316406 214.109375 262.449219 190.460938 251.167969 171.734375 L 251.167969 109.238281 C 251.167969 109.195312 251.167969 109.152344 251.167969 109.152344 C 251.167969 109.019531 251.082031 108.890625 251.082031 108.714844 C 251.082031 108.628906 251.039062 108.496094 251.039062 108.453125 C 250.863281 107.453125 250.472656 106.539062 249.730469 105.882812 L 199.167969 55.277344 C 198.34375 54.496094 197.210938 54.015625 196.035156 54.015625 L 77.53125 54.015625 C 65.511719 54.015625 55.757812 63.769531 55.757812 75.792969 L 55.757812 284.832031 C 55.757812 296.855469 65.511719 306.609375 77.53125 306.609375 L 229.394531 306.609375 C 241.414062 306.609375 251.167969 296.855469 251.167969 284.832031 L 251.167969 275.382812 L 272.335938 300.6875 C 289.972656 320.980469 319.324219 294.589844 301.121094 274.859375 Z M 250.90625 201.957031 C 250.90625 215.285156 245.726562 227.824219 236.273438 237.234375 C 226.824219 246.640625 214.324219 251.867188 201 251.867188 C 187.671875 251.867188 175.128906 246.683594 165.722656 237.234375 C 146.253906 217.765625 146.253906 186.105469 165.722656 166.679688 C 175.128906 157.273438 187.671875 152.046875 201 152.046875 C 214.324219 152.046875 226.867188 157.230469 236.273438 166.679688 C 245.683594 176.132812 250.90625 188.628906 250.90625 201.957031 Z M 242.457031 284.832031 C 242.457031 292.019531 236.578125 297.898438 229.394531 297.898438 L 77.53125 297.898438 C 70.347656 297.898438 64.46875 292.019531 64.46875 284.832031 L 64.46875 75.792969 C 64.46875 68.605469 70.347656 62.726562 77.53125 62.726562 L 191.679688 62.726562 L 191.679688 109.152344 C 191.679688 111.546875 193.640625 113.503906 196.035156 113.503906 L 242.457031 113.503906 L 242.457031 160.539062 C 231.398438 149.480469 216.675781 143.382812 201.042969 143.382812 C 186.0625 143.382812 171.949219 149 161.0625 159.191406 L 94.519531 159.191406 C 92.121094 159.191406 90.164062 161.148438 90.164062 163.546875 C 90.164062 165.941406 92.121094 167.902344 94.519531 167.902344 L 153.441406 167.902344 C 149 174.128906 145.90625 181.007812 144.164062 188.195312 L 94.519531 188.195312 C 92.121094 188.195312 90.164062 190.15625 90.164062 192.550781 C 90.164062 194.945312 92.121094 196.90625 94.519531 196.90625 L 142.683594 196.90625 C 142.117188 203.699219 142.726562 210.535156 144.46875 217.15625 L 94.519531 217.15625 C 92.121094 217.15625 90.164062 219.117188 90.164062 221.511719 C 90.164062 223.90625 92.121094 225.867188 94.519531 225.867188 L 147.605469 225.867188 C 150.4375 232.222656 154.398438 238.191406 159.625 243.417969 C 160.582031 244.375 161.628906 245.289062 162.675781 246.160156 L 94.519531 246.160156 C 92.121094 246.160156 90.164062 248.121094 90.164062 250.515625 C 90.164062 252.910156 92.121094 254.871094 94.519531 254.871094 L 175.957031 254.871094 C 183.882812 258.617188 192.417969 260.53125 201.042969 260.53125 C 211.667969 260.53125 222.207031 257.613281 231.570312 251.910156 L 242.457031 264.929688 Z M 242.457031 284.832031 " fill-opacity="1" fill-rule="nonzero"/></g><path fill="#737373" d="M 94.519531 138.894531 L 153.441406 138.894531 C 155.835938 138.894531 157.796875 136.9375 157.796875 134.539062 C 157.796875 132.144531 155.835938 130.1875 153.441406 130.1875 L 94.519531 130.1875 C 92.121094 130.1875 90.164062 132.144531 90.164062 134.539062 C 90.164062 136.9375 92.121094 138.894531 94.519531 138.894531 Z M 94.519531 138.894531 " fill-opacity="1" fill-rule="nonzero"/></svg>